<mxfile host="app.diagrams.net" modified="2021-06-21T17:10:09.260Z" agent="5.0 (X11)" etag="akF7cb1I1OBnhbY6ebo3" version="14.8.0" type="github">
  <diagram id="C5RBs43oDa-KdzZeNtuy" name="Page-1">
    <mxGraphModel dx="1422" dy="767" grid="1" gridSize="10" guides="1" tooltips="1" connect="1" arrows="1" fold="1" page="1" pageScale="1" pageWidth="827" pageHeight="1169" math="0" shadow="0">
      <root>
        <mxCell id="WIyWlLk6GJQsqaUBKTNV-0" />
        <mxCell id="WIyWlLk6GJQsqaUBKTNV-1" parent="WIyWlLk6GJQsqaUBKTNV-0" />
        <mxCell id="N8Epyex5zXu05ep0YqLh-2" value="" style="edgeStyle=orthogonalEdgeStyle;rounded=0;orthogonalLoop=1;jettySize=auto;html=1;" edge="1" parent="WIyWlLk6GJQsqaUBKTNV-1" source="N8Epyex5zXu05ep0YqLh-0">
          <mxGeometry relative="1" as="geometry">
            <mxPoint x="395" y="200" as="targetPoint" />
          </mxGeometry>
        </mxCell>
        <mxCell id="N8Epyex5zXu05ep0YqLh-0" value="&lt;div&gt;UsuÃ¡rio&lt;/div&gt;&lt;div&gt;&lt;br&gt;&lt;/div&gt;" style="shape=umlActor;verticalLabelPosition=bottom;verticalAlign=top;html=1;outlineConnect=0;" vertex="1" parent="WIyWlLk6GJQsqaUBKTNV-1">
          <mxGeometry x="380" y="60" width="30" height="60" as="geometry" />
        </mxCell>
        <mxCell id="N8Epyex5zXu05ep0YqLh-13" value="&amp;nbsp; &amp;nbsp; &amp;nbsp;&amp;nbsp; &amp;nbsp;&amp;nbsp;&amp;nbsp;&amp;nbsp; Cep Finder API&lt;br&gt;&amp;nbsp;&amp;nbsp;&amp;nbsp;&amp;nbsp;&amp;nbsp;&amp;nbsp;&amp;nbsp;&amp;nbsp;&amp;nbsp;&amp;nbsp; Google Cloud App Engine" style="whiteSpace=wrap;html=1;shape=mxgraph.basic.cloud_rect;rounded=1;verticalAlign=middle;align=center;" vertex="1" parent="WIyWlLk6GJQsqaUBKTNV-1">
          <mxGeometry x="280" y="210" width="230" height="110" as="geometry" />
        </mxCell>
        <mxCell id="N8Epyex5zXu05ep0YqLh-14" value="" style="shape=image;html=1;verticalLabelPosition=bottom;verticalAlign=top;imageAspect=0;image=data:image/png,iVBORw0KGgoAAAANSUhEUgAAAyAAAAMgCAMAAADsrvZaAAABfVBMVEUAAACLxQCLxQCLxQCLxQCLxQCLxQCLxQCLxQCLxQCLxQCLxQCLxQCLxQCLxQCLxQCLxQCLxQCLxQCLxQCLxQCLxQCLxQCLxQCLxQCLxQCLxQCLxQCLxQCLxQCLxQCLxQCLxQCLxQCLxQCLxQCLxQCLxQCLxQCLxQCLxQCLxQCLxQCLxQCLxQCLxQCLxQCLxQCLxQCLxQCLxQCLxQCLxQBmaGH///+LxgBnbF2KwwKGuA2KxAB/pyFoblpmaWBpcFmMxwCOxwaJwAR3lTKHugyBrBpnal58nyd3kjVrdFTc7bRlZmPU6qWIvQiCrxZ1jjmFtRB0iz1ufUuDshN7nSqHuwpqcld9oiNteU9wgkVvgEh5ly+AqR1sd1Kp1EP6/fWm0zx6mi33++9yh0H9/vpxhEP1+uuUyhSPxwvs9teh0DKRyA/D4X693nBue03m8sjh8L7p9NCXyxvJ5ImczSfN5pTR6J1lZWSs1krz+ebw+N+y2Vm322LY7K2v11GBe4EBAAAANHRSTlMAWY8DB/0K9/IVz/kvGqRuI9ru33frKRAOUzl/ZmC9l4Xn1bKLTfTjuKzKSEOcPzUewvvGNe3hJgAAKANJREFUeNrs3Ylu2kAURmEHY3CMMcEOa1jMEsoWljDv/2xtrEotlWiGxOCx7/newUL/1RFjIXN23d8OSqt1M6wppWphtJ6VGhu/XrYA6cr+QzxrVh11zqlGy/nQ5xuBZPZhEHiuumThBYODbQEilf146qr/c6cxPyMQqR1HjvqcE720LUCYx8ZaaXJOg0cLEKTyunSVPne2qViAEOX9OFTXaY191jpkeHppqutNn58soPA6w+O7+oracdi1gEKrbGeu+qpwtePkiwKz/VJLfcdk7ltAQR2ePfVdXqNuAQVU6Y2q6vsWox4nXxROuR+EKh1h0GeKoFja8Q+VHuoTFMqvrsRROqhPIE/SlaTNXVKfoAjs/luobiEc76lPkHfaXQn1CeTR70qoTyBO0pXclrvaMUWQT9pdCfUJ5Kk/e+o+vGfqE+RMV7sroT6BOOV+4Cot1CeQpx1H6t6imPoEuZB0JffnrBvUJzBe98quhPoEgiRdSXbCcZ/6BOZKupJMTV+oT2Co7vBUU9lK6pOOBRgn6UpM4K62TBGYZl+aKFNQn8AwH12JSahPYJBu71hVZqkee4TwMEJ5F5gxPs65AX/DCAN8dCVmoj5B5pKuxFSOR32C7CRdyUKZbLF8ZYogI3Z/HCrTtahPoK9YXQn1CYzVGa6z70r01NbUJ7ivymZm9vg4t+ARUNyTb1BXomdS2lvAJYXuSqhPYJCOeV2Jdn3CFMGNlbdGdiV6FsGW+gS31J6b2pXoiebUJ7iZx4ZnbldCfYIsJV1JPsfHueqI+gS/SetK9IRv1CdI2SEnXYmeZkx9ghQ95qcr0VPzhkwRpNaVrPLUlVCf4J5sv/RDFdGER0CRRlcyzftp96Ip9QmEdiV6qqcH6hPI7Er0uNQnkNqV6IlK1Cf4WlfyriRwvAZTBDK7Ej21ESE8rnwHp6UkCd92nHwhsyvRrk/4RCCyK9GtTwbUJ9DpSuSMj3PV2Sv1CT7pSsbF7EqoT0BXkoLmCydfXNB5OEocH+dqpwemCGR2Jbr1yYb6BP+wn0R0Jdr1CVMEf6sPpjK6Ej3OlPoEf3R7groS6hPQlaSgFVCfwLLsQyyvK9ETUZ9AaFei590bMEVE+8nenS4nCkQBFHYBdzFq1EQDyribuEXf/9lmyqpUjZVAUBC6+57vHfhxm1P3WnMD95VQn4CuJDX+lvpEqIP4riRqfXLIQZxB/sifj2g+T6xhlIau5CaVNfWJJHQlN1tSn8jRbNGV3MxutxhFRKArubs+yXN5x3h0JTF0nB2jiNGKhxHDRxzdGfWJwaruhuEjHpv6xFjWfM3TbhL1ySv1iYHoSqhPENaVtOlKEtMdcQTUKIO8R9SeJJv6xCDFD8eUE+fqoD4xRVHGHZz0+eMGo4j+mlLu4KTPbj9Tn2iu9Dpl+HicuscRUJ3RlfyI+gQXT3QlKVhSn+ip6m748xGMI6Cysa8kReUV9Yle6EpS1tvuGUX0QVeSOpv6RBsDl64kA/aJI6A6sHZ0JRmpTKlPVFfszxg+suOPG3wiKmu2WJaYoUt9wiiirBL7SrL36bnUJ0qy9g5diQo6a+oTBdGVqMOfsYZRMdW3E8OHQmqsYVQJ+0qUQ32iDqsx9s9QTc+hPlHCE12Jopajfg63oyuRgvoka9ZuTVeissr0nVEkI5euhOFDdT3qk6w0WzWGDw1Qn0RHVyJR/ehyeScKuhKpqE+ioCsRzJ81cghBVyId9UlKrPcpXYmOyqs8T74PV6Qr0VfHGTKKfEdXgi/LCfXJA724Hpva9WZvWtQnV+hKcKWyoj55iAZdiSE6Y0L4i4S7kjNM0WYN4z90JQiuT9h9QleC0BD+g1EkGf0RyxJN1CtwBJSuBCFqz1zeoStBsLLH7pOYXQnDh9moT2J1JX/OMF2X+uQ+L+wrEYL6hK4E4fXJnFGErgRh9cmQJ1+6ElCf0JXgPvUT9Um0roQjnEJRn0TQZ1+JYL3CnlGErgTUJ3cp0ZWgfMyzhpGuBMEqDmsY6UoQYjlhDeO3ruTI0y6+2DXqk/+VdhzhxJWFN2cUoStBsM6W+oSuBNQnv3Ul3uIM/KS+eRNen1jDLV0Jgi1kHwHtT+hKEM4v7HNC0ZX8Ze9ul1KFogAMLwQj0TSzRNGM/OCYYppx/9d2Zs6vmjk5Vu7NXvA+97BGF7zsjXPM61mfXG3XPNrFmfVJ7VYRf99g+cC5sm5er/rkMKErwXcM6nQJ6MijKwH1CV0JLimcreqwitCV4Of1SeWPYWzd05Xg5/pppeuTEV0JfqcdTSu7itCV4ALCRUWPYRym/QL4veenCp59Ek83XHGOC5lPKlafXG3XLB+4nPDdq9IqknBeCS4s626r8siXrgQmDBqVqE9iuhKY0Yx66leRq/yF5QOmhLOx7vqks+SKc5h0t1N8DGOrF/HJIAzrp7c634rQleBL1CdBsiNqx9dqXp/c0pXgHPWsT+JpxBXnsKqvpz4Z0ZXAvvbmUcUq4u/pSlCK6xcF9QldCcrzp9FxexWJvXe6EpSn6fQxjEHeZflAudru1id0JXDBXTd38X8W9+DAFYOlc/VJPJ6xfMAVx2jq1CoSvNKVwCnhwqFLQOlK4J5nVy4BDTy6ErhoMHFhFWmlvDiHm44OhPDDLj8fcFb4kkipkjXfDMJlcy+Q8uSbAnDaw/1IyrIiTITzsmVLyrHi6S4UCEuakC2/H1AhS0diX0J7BSWyni+2DWcFoMTzWCy76fJ8F3psOmJVkPJ+EIo0d7FY5Hv0JVDl+tEXe4a8IIQy0a1YEzwVgC7N1BdbxvzBgjqDvVhysy4AbY6NQOyY8n0tFJrvxYoDrwih0fHeFwt8j1cgUOntIBaMFgWgUbYSCxIeYUEpK2t6eiwAleYtMS5+KwCdrnMxLh8UgE7tiRjX4wxeqLXwxTCfDAt6RS35DzIT4J9+IoZ1+BIdej2MxbBXbpGCXtlUDFsRKkKv5kQMG3NWAxRLxTCvAPRaymcMCPBBQz5jQAAGBGBAAAYE+IABAU5gQIATGBDgBAYEOIEBAU5gQIC/7NMhAQAgAASxUrjv34sGZxFsHRYEgSAIBEEgCAJBEAiCQBAEgiAQBIEgCARBIAgCQRAIgkAQBIIgEASBIAgEQSAIAkEQCIJAEASCIBAEgSAIBEEgCAJBEAiCQBAEgiAQBIEgCARBIAgCQRAIgvDMtvOdy669rSYMBWEUfqkEjVYFjw3ioSapsbZX0vd/hcJupyAM4b+evb53WMweZhMINNPj2+XWdsWoyAqBQDJq+nJfbi/XQ16FEAg0uzIZPz6rIiMEAkl1L/+8n5ppPlOEQCCpVuW/ejXJJhECgSQFYuZ9u86kEAKBwgIx29t1WeSAQCCxQMx+9r2pMpgiBAKBBfJkcWriJ0IgUFggz+r7uQiOQCBIgTjml/ZQhEYgEKRAPPvxx8sy8juLQCDwA7HbeuRtnUAgGAok3dbD/vMlEEgsEN/Xah30tk4gEKRAhmz7XTeKmAiBQDAYiN3WQ27rBAKBBTJo9tjE+wlPIBAogaRt/RxtWycQCFIggnm9C/aHkUAgSIFIZm2sZxaBQGCBCOpjqFWdQCCwQBSvoUYIgUCiB9J3kUYIgUCiB7KYEAiBZEcPZEwgBJIfAvlFIHAQiCEQOAjEEAgcBGIIBA4CMQQCB4EYAoGDQAyBwEEghkDgIBBDIHAQiCEQOAjEEAgcBPLDPh0SAAAAMAzq3/pq7hGgAxGEQ5AIwiFIBOEQJIJwCBJBOASJIByCRBAOQSIIhyARhEOQCMIhSAThECSCcAgSQTgEiSAcgkQQDkEiCIcgEYRDkAjCIUgE4RAkgnAIEkE4BIkgHIJEEA5BIgiHIBGEQ5AIwiFIBOEQJIJwCBJBOASJIByCRBAOQSIIhyARhEOQCMIhSAThECSCcAgSQTgEiSAcgkSQsXOmXWkDURj+UzO5CcFQI6saFgmLrIIgigWsW4u2/e3VtGO1CQEyyeROD885fvILZ+48Yd7wJjs82AnC2Amyw4OdIAw5BYH/aSQ42QnyGwkFATBrliaBI/oLRFZ2gvxGPkGgliy1WvmMiXws+mTa600nsiqCTRD4BM5ftPwHgpjJsUpfSFWKqPfe7ezwarm8OpzdEilBJoiZGeRLebsc8cxlFwS0aiXFBlM4SBCs3yKXzzd9xaF/83xJ8AJmcVA5L9lVDcg7cAnyOvZ69ujrkdqNeOZyCwKk3K7TvxjNXA2jIfr+2fFQeWN4fLaP9MvOueBkKTWy9dIHRTAJAiTxd+xGsxHlzKUWBGq5uUE/kB13EEaR+7sn5QNPd1OCkkS7QBmFdpm8gUgQsHInhqiZyyyI2TnNUhepUhXZ1XkyWyguFrMJQYf5cecZc9ti/8IjiNYZq+JmLq0gLHx4UGin8UQR/fobCx8MFkW+XaMyGbSMa+epJ0kLnLVEIgho5VJK5MwlFQRI+aBOV2GcNCwchuhw9jhUVjB8RBRFQK967jz1/Pf5BYcgkBgUVsx8Hs3MJRXEsk8M3xGdZzSCgPvPV4oPV5/vCRLSgy71JlUqaoSgEMRstLI+M+9EMHMZBYGX8KHSNdRLZR1IvEy+L0aKL6PFdxRRxGycZOlKCvmEDmBW4hUEtOL5HvUjFcHM5ROEhY91GAU71iiiX/YO+8pa+oe9S53EibPzVP+17A7KtU4qTkFAL+dT62c+CPtXEfkEKR8U6GZkWw0zPkOmDxfKRlw8TEmslPP19WvZPa3TGAWBmt01Npl52PFTNkEse27QjdmrFGOKIreu8OEbRWJsn9QGTcqBGEHMpCt8CIqfUgkCZqelHtFtqOcT4qOIfv286CtbMFo8x3PLF5ydh1wQ0IquQ7Ww+CmRIK/rtEe3xegKbJ+w8PGjr2xJ/4fgKMJW9DV8oBbE446+yCgikSBO+AhAdpw0iUCmd0slAEvx7ZPEnxVFLYiVm9OtYPGThII0grDwEYCjVKUq7Jw1mX1RAvJFbPvEeiuyIRZE65yqR0FmvvcSRYDwI4cgTvigHAgqwuvXP1mvJAj9m5+CosjH35KwCuJ9R3/z+BlGFJFBENCd8MGFMc8JaJ84vRIehse9fRI5Tq/k3YoiFQScajEH3QH/B5FBkHCOyuq4o5EIYaV2Tp7uBLRP0u0ufQdOQVip3YXQKIJdECBWrmlQXlgTQQMSFZMZ65XwMYo4igC4eiUIBfGqFgeLIkW+mSMXBNgzH+FQGCQgAkWcUvu/vRKkUcRr56ETBPSqq1fCEUV44iduQfRiKUXDxGhFU4o+Y72ScLh4PCPRoFc9eiXoBGHV4nBo2mkSGNSCcIQP3yZCmIqwXgkHIorw/r0SXIK4S+3cUST4L2FoBQFYEz5iv/33B9271M4fRb6H/QYtMJMrwgciQVipPVyCRRHMgrDwEQVG106HYwjrlURC//BbmO0T0DKreyVYBAHCSu1hUz8ok21ALojuqqch+s59z/RhqUTGMswifDnvc17FIohlN2lUNO0a2RzMggBJc4SPTdsnxRCiyO2MI3wILMIDsWzf8yoKQcBM+pa1+S+Lm70eCLsgUMuJGGadt32iT545wsfmRXj+KAJmZ03sRSAIK2tHyd66y6IEgoDZGYsZptHkap/s946HigD63O0Tvbi2V4JAEJ+ytrAoIoEgOquniUAdJzUSANYrEcTTwz1ZD9fN8tgFcXolIjCatkW8wS8ICB9mqlINEEWcUvtIEcboKnD7BKyGkPDBJQiYmVOVikJ1RxFJBGHhQyiFdoL441lqHylCGd24n8lFdV7lEIS9so4DjigikSB6RvQw2WsYNbIV08cLRSSsCA9kSzh2nkBBEhzVYp7ng16RSpBf7N1rc9JAFIDhP3U2m7CQ1FgCGLkVSLiUcilWrNpSL7Xa1t+ui01LaAgbirObzHk/Oo461cdmSXJOvuISGblWO5GQmytNSr8+Jzysd8T/5ckDYvhHUv5b7DcAUgWENrpEVlYRxBtfaZI6uwXxqJHkuRJpQIx2gcipn0sXEGNA5HVqg2jv7zVpXX4B4YySRcSTBqToEUmZdSNVQKpHRF5eDkS7GWnSmt2CcDWPSEsciHFKpFWp0RQBoYcWkVfhGASjXzWJfRc+hRh1Ii1xILQ1dImsnPZBqoDoRF6FPAj26q0msXthIJ0KkZY4kIO8RaT1Y4BAsgbkjTCQmkWSJA1IgYiHQBKEQOIrIhAEgkAQCALZEAJBIAgkJgSCQBBITAgEgSCQmBAIAkEg4llDz0QgCASBRKX3S7VWzT8tqA9kNEoFEMdJAxDT0R0TgWzL7PpVOKAHwHeIqA1ktPh9sxgpD8TslorvdOWBWM1irlb2EIj4qy/VdldlIHxsO39ZV3EgfPIk2KULU2kgTu/YBgp8DiMC2ZzerLHwdDRPVSB8HXqww1BhIMHsYr46U10gZrfdocCjtt83EUh0zlHepuvzNU91FYGM3jxusWXz8f1IUSDmhV+lT0NydUWBWCvjlSnkJhUTgUQ0nHSAwlrL9TCqAeGTqGGlj3eXMxWBVF4fAg1/KRUEsj6JmvJZUS4CWcurt9jGQVBqAYlYq/bt0y/lgBSaNfZ8oIJqQMyotWrG8TsdgYSXn28ebkSNWl1XBwgfjficMh1fT5UCwgd608htn0oBqQxydNPIKAQSmhpKtwyjVQPI7DKYaBW1MlodIMH1auQGbmWAhAf9UbpKOZfwAxozu28UOs3tc6erk4oKQPh49rjNVGoAca16g9GYnQRqANF7eSNk1wa6++qdSjFd76Tr4j7qIkOnWd6TDmTrrsHz72cKAHG2zShulC0FgIQXfFDbb56GfgRoouVtTRsyCqTXoSAQm5hygcy2b6tlc74dVy4Qc1iK/YIGq3ElAynwbbXhbxeuq/fz4Q+0chOPiDVs0YwC0QW/NdLchVQgZ5/fi83B/ikViF7PMSowBLtUkQrEGRg0NOX8AUIhPH6cspIudsOnCJBRIP0OBaGMsisRyOzTXPCX/DyTCaQpuCSF+Y5EIG63QVe0rj4IMwx/rmUfCT1Ok7bZvAmA1G0Q62BCJAKZnjAQio2n0oCIf5YDNGfJBNKzISi43ou+M2I0Bc5cxdRNd08ApGyIAimZ6QByhkDEgbBG3Yu6t/4IpG5uPXNV07cfBIEgECEgzB+a5HneoCoIxPv3iTYCQSCZBFI9cuMn7cYDcd4dG8BDIAgki0Do4UuAmMN2J6VbbhEIAvnvQKzm09UVAkEgCCSU2c/b8BgCQSAIJPQTJocUnkIgCASBPKWv7/tGIAgEgaxsMrYhHAJBIAgkZukzAkEgCGSZHrzCHgqBIBAE8jBXMOpPg0AQCAIh7sbHdhEIAkEgMQ+WIBAEkkkgnWggbgiIwGO7CASBZBEI2OVClBC9WX18Tc4ky2IHUQACQSCZBAJ2vu88f4G2XYUg33wYbm1AXAgEgWQSCNDDydorIdbrBjzV6TmmOZx0KMSGQBBINoEAZY26FXOfo+MPStuvrhAIAskoEADKZ/HGPEXCGGwLgSCQTAE5Cn7N8GCTyiAHO4VAZAOZ3YkCuZU69qcseDFCi7pEIKTg07AQvuHHatZ2vJRCICAbiPbhZi5AhM1PrjSZQDyhmwXUqB3JnazYfb4sqdqxd+WBQEA6kGDpWnx8IZtUIMQJlq7FRPlCNnlAgvUlxt48IBCQD+RhbWdMfKWnAsOrl2s74+IX/PKHV5NKOQd7CoGACkD44ufN11lsfrMYKbH+wOy2q0AhuuXkaiXWHxCnW+J/zj2EQEAJIJo2vR5TiO78+kyZBTpOb8PGLsoaZUuZBTrBHqwXh0BAESB8h843eB7fnqPUCjYreudjZ9JVagXb8igCLw6BgDJAtNni7iOsNb9dzFRb4sm3sK1l5Hu6Yks8l2/QMgovC4GAOkA0bXo/Xt3jyV6N304VXAMd2jv/sF5ZwTXQxAlWVO4eAgGVgGjaz5VN0Gy5A1pBIIToK3feaI6veVQRCD8yvfAogkBALSCadhl85Pv+7nKmKQpkZQKI7fdNoioQQqyXHUUQCKgGRBu9OZkzNj95M9U0dYEQ88Kv0oeNsQoD+UeZwo4hEFAOyPLW+vnXM01TGgh/frzYeG0RojgQvi2/g4+aZAmIpn34MNOUB0KINzSJ+kCW+6tt2CkEAkoC+VsagPwtFUD4UaTFKCQPgQACES+9QHY9iiAQQCDCpRrIbkcRBAIIRLxUA9npKIJAAIGIl3IghFhJ138gEEAg4qUeCN8DnegokmEg7oSBWAe+vn8g15rE7hFIzA3OJEeRDAPR8xTEoq3h3oHQTzNNXl+zBuTY2+dv28sbIFh2gbg98V2MRn3vQOBkpElregKitTwiL0/0r4g2ui5ZpvBRJGVAvGMKwjUu9g7k/b0mreuPIJp9QeTVq4JgRn3fNgcNECqrQDzfgAQVu/sGAuMrTVKLbwxEY22HyMpsMxAtuAre51FEmGf2gDj9YwaJap3qewYCJ4uZJqHZ4hwS1HlHJOX2chSEy1fIntOXr9cLlTEgfGQ3JM32/7B3P0ppA0EYwF9q4xKukhIlQtNQBKMIIqIiCPW/OFprn71mpjuOjFpy2TvOzP1eQEfzSb5z764ZhKwBgRHtJtfp9Oc1pIGtXWc5mnVIQdSPVkOH12qKKpKjgNDpTWnF3TZXQMhk9rCi1cPdBFJCOgJdG/otQTr+TidwOKU9sjcfASlsViT/KqBoVT3egMD4/knjalb/2/0YUkP/y67uIlI4kvgtYXHQc5iVmimqSA4CQscJyEG/MiywBgQEbZxV7/jq90iABMR4o11y9AnO5a5cRpf/0y5MWUU+d0DagxgQZFEVYQoIudZTRX7dXIMsFMVqzdGl110HBCkvpzeaV0XMD8h2tQXZFbs93oAAHsxOVtShgxnLkIVb31x1lKOD5+RhtNMsOc+MqyKmB4Rea7NC0frhsQYExPT+m9Iqcnz5ZyogG6RbL5UKsr/Q0DFDzFXEh5Q+VUBCKh8MqIowBYSqyJWyKnJ8dXYN2SHEWxJ7zHUfKk1VhFlht+JCap8mIEn5YEJVpMQUEHJ782uFMJePW2AiGtVtRw3a9crD3TtiryLejgAp5gfEq7YE8KElRd6AAB7cHa6w63/fLwMHKsEMTx77xTZ6qkgnAllGB4TKBy90qYpwBQTE9M8lcxU5vngcCWBCT9554PALOryDHQjFbo05wesI0kwNSBjQ9b68aEmRMyBAN0WxzpVwQ4i7PYcX3bzDiM7MZlSLQZ6pAWkP1kEN+hxnCgiZ8FWRh9kElKB1POa5En7u3jBwuARdF+SZGZCkfCAoQkuKvAER5f3vfZby8US34/JDn+/Jo+kfJRhnALYHEWRgYEDCwlDRD36+inAFhKrI40U/e/n4PQJ1EKONNkdEaPpHFYTiWo3n35fZniXzAhJ02MvHu5/jBbaA0PTJlXnlY15xjaGK0AK8QkkVCTPW86OKC9mYEhCIe3QPWBGUm68iXh2y4BqEP6ELP9US9SwlmN6BQT3/C70QSt+yk5tZLHDXSmHoeD8aAkELWlJMvmwnAibJ/R996aH2qQDFqIpkmj4pDCs+gmJURQL50eI4R9O8APFas0mtTwsa0Hr+sg1gNKVB+LRzJSPQBSHaki7BAc03aYBCoorQ7lOWP7XmBATA9wUooP/L3v485Z4r4deo1iSH2ougk5AZR67R7tPMTApIfpQPZofp5kroFlx90K1vFiRWheoCQT3ZnZH0TeZuT3rOiHGKQfg+DbXrQ09eM0hXPmiuRAPpnZGrw0oOTzXJn9HZglWEhtqXIR700hw5tRWBThI7I8MC838JbEDUWeg69IebCSxTq+otPNTegOVZ7IWw1NyKgZUNiDqi/N9B+P7T/ljAMqFPg/B8Q+38FtsZWUq22Ob0bN58okH494fap7B0SAdafCDo8MyVSFtkbXpbxT/RbEAUuz67+miuxAx0oMV72oMIjPDB2rS3WXGBnw2IcpObhzfnSmYTMMaHg/BetQEIRkC38nYVCYaK1tdsQJQT4/2nw7cOSxRgDvT3dgvvnCpTdw2JR+LNKhI0dyLM9x2F+TZ+vDyeG2o3oHzMibbOS84bj97Sy8drCPGg/bqb07mCKtiAaEGD8FQ+bsFEjVdzTzRbbaBWdVvX8rMNiC6T2cnLYYkmvV29wOQYxrnDEs36+Pjn5ZCWEu2IUsUGRBcxPphdnJ5e3O1PzYxHInnDL4R0+nPFsLerF0ln2mz3es1qXfH3aAOiEZZHo7Kxz9w/0aDjOaHjdTYMWdp9j/DjyBWgmA2INa+4t7Gxs7cO1jMbEGsefk2Y/kmniQ2IZdmAWJYNiPWXfToQAAAAYBgkdX+2G4ygHGITBIIgEASBIAgEQSAIAkEQCIJAEASCIBAEgSAIBEEgCAJBEAiCQBAEgiAQBIEgCARBIAgCQRAIgkAQBIIgEASBIAgEQSAIAkEQCIJAEASCIBAEgSAIBEEgCMLZpwMBAAAAAEH+1htMUA4xBIEhCAxBYAgCQxAYgsAQBIYgMASBIQgMQWAIAkMQGILAEASGIDAEgSEIDEFgCAJDEBiCwBAEhiAwBIEhCAxBYAgCQxAYgsAQBIYgMASBIQgMQWAIAkMQGIJA7NthTsJAEIbhT1sKAoU0gSpQCBgBG0WNzP3P5gncfztkwvvc4c1md2YTCARIIBAggUCABAIBEggESCAQIIFAgAQCARIIBEggECCBQABPb8psNTAgrL0yO54MiGqwUGZfZwOiGnXKbDo2IKrDUZn97AyIqpkqs2pmQFTXF+W24RkLYV2U3WppQEzDTtm1rwbEdGiVXdkbEFNfKb/50ICIfreF8msZFSKmcSsH1cWAiPal/sc6Fu5cs5aL+t2AcCaPhXx0IwOiaaZyUrOPhXAmi0JethwhiGZXy80zw0IEc/6QozWzEIRy2lRyVC4YpyOS/kmu6hlb74jj2srZN19vEUbzKXdHriEI4vxQyF2x5ecUQlh2hW6gmlMIAljOS91E1R0M+GPvTtfTBAIwCo+BgIILUeMSBGNW9yVy/9fW9k/TNLGdKMss570Hn4cPjjOKm3VcURG31ssApfUSV1TGWae87YXKgrEjqjS4YohAXelWVMwbp3xUh5r89kBUrzUJwgxQTq8/FEqI7m8yQC2zzZ0jFOFsN/xDBCoJH59HQiFDpgjU8RZMWkIxrU7AK18oofcUKfN09YfmE98NUb1ue63iz+Mnd91miqBaYVpT5N3VV4a1I1ME1bl+6Cs3Pj5qxVyPgKq8XjUVfbp65+ymRL6oQn2xcoUGvNUjp/eibOEyaQhNDCdL6hOU6ibeK/90RX2Citwq1JXIce823Qwogz9XqyuRM3pOmSIoXqhgVyKnQX2Cr5nflcjWJ5yehSLVN2stXu2e4m2pT1CY8DBWuCuRM6odqE/wm1VdiZx9n/oE73LsSoQhdpx9gpy9aNKVyPHWj0wR2NmVyNYnx7cMyKsrEcaJYuoT5OF2qltXIsehPoGtXYkcj/oEF3clho2Pv+uTJfUJLuhKVDhMtFDNe+oTnKfe3hr0avd0CE99gjP4BnQl1Cf4gK7k3PqEW6RhaVcixWlSn0Cav1h7wjLUJ5DkG9eVyBkmB+oT/NeDiV0J9QnoSi7n7qbUJ7CzK5GtT+ZMEXztetmxcnx8qk8y4LPevfFdiZwB9Qks7Uqk6xOmCOzsSuR4NS4Bxbugz/igPsEJsye7uhLqE3zDi4VdiWx9smCK2M4/JoyPf9Un3LxjNYu7EjlRn/rEXl2ruxI5bnPKFLHTy3xleVciW58QwluIrkReY8LZJ7ahK/mWQUx9YhO6kjPqE6aILfzDmPFxRn0ypz6xQmDTeSV52neoT8xHV3I+h0tATVenK7mIu6U+MZh/TBgfFxolKfWJoR7iSCCP+oSvIgbqTnd0JXnVJ7MMZqnPV4yP3Lgr6hOj0JX8Qn0CupLSRPErPxEj1Nt3dCUFcHfUJwbwU7qSonhj6hPd0ZUUqtUJeM7SGF1J0ZwB9Ym26ErK4G45hlFL4YGupBzDJOXmHe3QlZRoT32imVu6klI5zSlTRB90JeVzVwvqEz3QlVSjMTkyRTTwSldSlSjuZVBbl67kB3t3mpwoFIZRuBBFGRRsg4pRcY7zvP+1dfqfnQTjgHCH8+zBKl7r1P1yZO42hPAiK/cjxkeurGhMfSIsuhIBVLvUJ2IKJx5/7QrADKhPBFRZbPm6EgT1iXCOB+7giKRl8PaJSOpvdCWC2fvUJ6II4x1/7QqH+kQQlfmU8SEk6hMR0JUIzO4tqU/uRleikf07R0DvQ1eiF+qTu9CV6If6JB+Oz4lzSVS7DlMkY8MCXYk8zGBCCJ+lPwuOcMqF+iRDLl2JhFoR9UkmSnQlkqr6I+qTlwtjj68rSZnNAvXJa1XGdCUyK65qszNepbTs0pVIzjZOTJFLdCWgPslCSFeiCHPHEdDUlecG40MZ1pT6JFWlEV2JWuyuwxRJzUehSVeiGDMYMEXS6krWjA8FmdsNR0DpSnC1PmGKPKfUoCtRmU198pThhq5EbWazQAj/qBldiQaK6xpvnzzYlfAUtRZs48QUeaArYXxoo/o+OoOuBNQnqXDnBifONWOtqE/oSnC1PllSn9CVIBn1CV0JfqlPePvkmmOfrkRv7Sn1ybX3Shgf2rN9joAmdSU8lohPHs8w/vxeCeMD1Cd0Jfhdi/rkP41BwNcVLlXfqE8uuhJ+HvhWnxSoT/4pzyO6Evxcn/AMI10JkrV6utcndCWgPklUqdGV4DqzE+tanxwPBk9R44b6ZK7jFKErAfVJsmFMV4KbeQO96pPZgq4E9yhuNapPjg5dCe7Vjg6a1Cd0JXiwPnHO6gs3dCV4kKd8fUJXgmdY67HKU+Q48hkfeEq7p+4R0AZdCZ4XKHoElK4E1CeJXLoSpFmfqDVF6EqQLttfKlSffNCVIG1NZeqT8oI7OEhfsaNEfeI6XcYHXqKtwBHQOl0JvqI+oStBRryJvPWJS1eCl7O2CzmnCF0JstHuHSSsT+hKkJlAuiOgdCXIkrmLw7M83BNdCbJlraSpTz67EsYHbqJjfTKMd4wP3Eyz+qQ8XtGVICfFTk3sEN51eowP5MiK+gI/w1gf7Pm6wt/27jU3QSAKoLAtICooIEJ8oFZFfFTQyux/bY2/mphqS1phcM63hwnc4eRSra4ja33STzOOByqn2bGMV77WbM0vziGFZraTbRQxOnQlkIds9Ykfhw1AIu5Ant0ndCWQj2ZLUp+Y+QvDByTUfJdhDeOSrgSyake5IQqjK4EywokvqpPQlUBy+rgXiALoSqCY5mhrigp4b24DqIEq6pM++0pQG1oYb0SZzNmafSWoEb3M+sToOAwfqJnhdGaJUvix3QBqxx14hni4hK4ENaU/vj4xP+hKUF/6N/UJXQlQSn2yeD02gJpzJ/7XEaErAa7oxzQQ/83aRwwfeBLN0epSn9CVADfrE4OuBCihPknoSvCE9KwX0JUANw1fZhZdCXDTyflbfdLqZXQleGJaON/QlQB36pNdi64EuKk9zc+isICuBKooXp8kqwNdCZSh2+lC/N45pyuBWorUJ96ErgTK6UYdS/zMoCuBmjTX2ffFfaafZnQlUJTWHqV3zojlrQYhHwahMi0cTXbLxLh+sbI229dozMMD0Nr2IYp3uRdcxvZzy++s5s76eOJeVwKfRrH0kLZaqZ8AAAAASUVORK5CYII=;rounded=1;" vertex="1" parent="WIyWlLk6GJQsqaUBKTNV-1">
          <mxGeometry x="290" y="240" width="47.5" height="50" as="geometry" />
        </mxCell>
      </root>
    </mxGraphModel>
  </diagram>
</mxfile>
